<?xml version="1.0" encoding="utf-8"?>
<!-- Generator: Adobe Illustrator 26.5.0, SVG Export Plug-In . SVG Version: 6.00 Build 0)  -->
<svg version="1.1" id="Layer_1" xmlns="http://www.w3.org/2000/svg" xmlns:xlink="http://www.w3.org/1999/xlink" x="0px" y="0px"
	 viewBox="0 0 24 24" style="enable-background:new 0 0 24 24;" xml:space="preserve">
<style type="text/css">
	.st0{fill:#231F20;}
	.st1{fill:none;stroke:#231F20;stroke-width:1.0804;stroke-linecap:round;stroke-linejoin:round;}
</style>
<g>
	<g>
		<path class="st0" d="M12.9,15.9c0,0.3,0.2,0.5,0.5,0.5c0.3,0,0.5-0.2,0.5-0.5c0-0.3-0.2-0.5-0.5-0.5
			C13.1,15.4,12.9,15.7,12.9,15.9z"/>
		<path class="st0" d="M14.4,15.9c0,0.3,0.2,0.5,0.5,0.5c0.3,0,0.5-0.2,0.5-0.5c0-0.3-0.2-0.5-0.5-0.5
			C14.6,15.4,14.4,15.7,14.4,15.9z"/>
		<path class="st0" d="M15.7,15.9c0,0.3,0.2,0.5,0.5,0.5c0.3,0,0.5-0.2,0.5-0.5c0-0.3-0.2-0.5-0.5-0.5
			C15.9,15.4,15.7,15.7,15.7,15.9z"/>
		<path class="st0" d="M9.1,11.1c0,0.4,0.3,0.8,0.8,0.8c0.4,0,0.8-0.3,0.8-0.8s-0.3-0.8-0.8-0.8C9.5,10.4,9.1,10.7,9.1,11.1z"/>
		<path class="st0" d="M12.6,11.1c0,0.4,0.3,0.8,0.8,0.8c0.4,0,0.8-0.3,0.8-0.8s-0.3-0.8-0.8-0.8C12.9,10.3,12.6,10.7,12.6,11.1z"/>
		<path class="st1" d="M14.1,13.2h-5c-1.2,0-2.2-1-2.2-2.2l0,0c0-1.2,1-2.2,2.2-2.2h5c1.2,0,2.2,1,2.2,2.2l0,0
			C16.3,12.2,15.3,13.2,14.1,13.2z"/>
		<line class="st1" x1="4.9" y1="17.8" x2="18.2" y2="17.8"/>
		<rect x="8.2" y="20.2" class="st1" width="1.9" height="2.5"/>
		<rect x="13.5" y="20.2" class="st1" width="1.9" height="2.5"/>
	</g>
	<g>
		<path class="st1" d="M16.2,7.8C16.2,7.9,16.2,7.9,16.2,7.8l-5.6-1.5c-3.2,0.4-5.7,3.1-5.7,6.3v5.4c0,1.2,1,2.2,2.2,2.2h9.1
			c1.2,0,2.2-1,2.3-2.2v-5.4C18.4,10.7,17.5,9,16.2,7.8z"/>
		<path class="st1" d="M14.1,4.2c-1.6-0.4-3.2,0.4-3.7,2.1l0.1,0l5.6,1.6c0,0,0-0.1,0-0.1C16.5,6.2,15.7,4.7,14.1,4.2z"/>
	</g>
	<line class="st1" x1="14" y1="4.1" x2="14.5" y2="2.4"/>
	<path class="st1" d="M17.9,3.4l-3.6-1.1L18,1.5c0.5-0.1,1.1,0.3,1.1,1l0,0C19,3.2,18.4,3.6,17.9,3.4z"/>
	<path class="st1" d="M10.8,1.3l3.6,1.1l-3.7,0.8c-0.5,0.1-1.1-0.3-1.1-1l0,0C9.6,1.5,10.1,1.1,10.8,1.3z"/>
</g>
</svg>
